<svg id="Layer_1" data-name="Layer 1" xmlns="http://www.w3.org/2000/svg" viewBox="0 0 341 222.01"><title>ice-cream-silhouette</title><path id="path2387" d="M86.8,179.36c0,21.7-19.19,39.29-42.86,39.29S1.08,201.06,1.08,179.36s19.19-39.28,42.86-39.28S86.8,157.67,86.8,179.36Z" transform="translate(-1.08)"/><path id="path2389" d="M140.23,180.08c0,21.7-19.19,39.28-42.86,39.28s-42.86-17.58-42.86-39.28,19.19-39.29,42.86-39.29,42.86,17.59,42.86,39.29Z" transform="translate(-1.08)"/><path id="path2391" d="M189.94,181.15c0,21.7-19.19,39.29-42.86,39.29s-42.85-17.59-42.85-39.29,19.18-39.29,42.85-39.29,42.86,17.59,42.86,39.29Z" transform="translate(-1.08)"/><path id="path2393" d="M242.37,181.86c0,21.7-19.19,39.29-42.86,39.29s-42.85-17.59-42.85-39.29,19.18-39.28,42.85-39.28,42.86,17.59,42.86,39.28Z" transform="translate(-1.08)"/><path id="path2395" d="M289.66,182c0,21.69-19.19,39.28-42.86,39.28S203.94,203.7,203.94,182s19.19-39.29,42.86-39.29,42.86,17.59,42.86,39.29Z" transform="translate(-1.08)"/><path id="path2397" d="M342.08,182.72c0,21.7-19.18,39.29-42.85,39.29s-42.86-17.59-42.86-39.29,19.19-39.28,42.86-39.28,42.85,17.58,42.85,39.28Z" transform="translate(-1.08)"/><path id="path2407" d="M172.17,0c-81.73,0-148,68.23-148,152.31,0,4.67.22,9.29.62,13.85H319.62c.4-4.56.62-9.18.62-13.85C320.24,68.23,253.9,0,172.17,0Z" transform="translate(-1.08)"/></svg>